# Media Information
<pre>
General
Complete name                             : X-Men.The.Last.Stand.2006.1080p.BluRay.REMUX.AVC.DTS-HD.MA.6.1-GEMINI.mkv
Format                                    : Matroska
Format version                            : Version 4
File size                                 : 28.4 GiB
Duration                                  : 1 h 44 min
Overall bit rate mode                     : Variable
Overall bit rate                          : 38.9 Mb/s
Movie name                                : X-Men: The Last Stand
Encoded date                              : 2026-01-16 22:29:00 UTC
Writing application                       : mkvmerge v88.0.0
Writing library                           : libebml v1.4.5 + libmatroska v1.7.1

Video
ID                                        : 1
Format                                    : AVC
Format/Info                               : Advanced Video Codec
Format profile                            : High@L4.1
Format settings                           : CABAC / 4 Ref Frames
Format settings, CABAC                    : Yes
Format settings, Reference frames         : 4 frames
Codec ID                                  : V_MPEG4/ISO/AVC
Duration                                  : 1 h 44 min
Bit rate mode                             : Variable
Bit rate                                  : 32.5 Mb/s
Maximum bit rate                          : 40.0 Mb/s
Width                                     : 1 920 pixels
Height                                    : 1 080 pixels
Display aspect ratio                      : 16:9
Frame rate mode                           : Constant
Frame rate                                : 23.976 (24000/1001) FPS
Color space                               : YUV
Chroma subsampling                        : 4:2:0
Bit depth                                 : 8 bits
Scan type                                 : Progressive
Bits/(Pixel*Frame)                        : 0.654
Stream size                               : 23.7 GiB (83%)
Language                                  : English
Default                                   : Yes
Forced                                    : No

Audio #1
ID                                        : 2
Format                                    : DTS ES XLL
Format/Info                               : Digital Theater Systems
Commercial name                           : DTS-HD Master Audio
Codec ID                                  : A_DTS
Duration                                  : 1 h 44 min
Bit rate mode                             : Variable
Bit rate                                  : 4 125 kb/s
Channel(s)                                : 7 channels / 6 channels
Channel layout                            : C L R Ls Rs Cs / C L R Ls Rs LFE
Sampling rate                             : 48.0 kHz
Frame rate                                : 93.750 FPS (512 SPF)
Bit depth                                 : 24 bits
Compression mode                          : Lossless
Stream size                               : 3.01 GiB (11%)
Title                                     : English 6.1 DTS-HD MA
Language                                  : English
Default                                   : Yes
Forced                                    : No

Audio #2
ID                                        : 3
Format                                    : AC-3
Format/Info                               : Audio Coding 3
Commercial name                           : Dolby Digital
Codec ID                                  : A_AC3
Duration                                  : 1 h 44 min
Bit rate mode                             : Constant
Bit rate                                  : 448 kb/s
Channel(s)                                : 6 channels
Channel layout                            : L R C LFE Ls Rs
Sampling rate                             : 48.0 kHz
Frame rate                                : 31.250 FPS (1536 SPF)
Bit depth                                 : 16 bits
Compression mode                          : Lossy
Stream size                               : 334 MiB (1%)
Title                                     : French 5.1 Dolby Digital
Language                                  : French
Default                                   : No
Forced                                    : No

Audio #3
ID                                        : 4
Format                                    : AC-3
Format/Info                               : Audio Coding 3
Commercial name                           : Dolby Digital
Codec ID                                  : A_AC3
Duration                                  : 1 h 44 min
Bit rate mode                             : Constant
Bit rate                                  : 448 kb/s
Channel(s)                                : 6 channels
Channel layout                            : L R C LFE Ls Rs
Sampling rate                             : 48.0 kHz
Frame rate                                : 31.250 FPS (1536 SPF)
Bit depth                                 : 16 bits
Compression mode                          : Lossy
Stream size                               : 334 MiB (1%)
Title                                     : Spanish 5.1 Dolby Digital
Language                                  : Spanish
Default                                   : No
Forced                                    : No

Text #1
ID                                        : 5
Format                                    : PGS
Codec ID                                  : S_HDMV/PGS
Codec ID/Info                             : Picture based subtitle format used on BDs
Duration                                  : 1 h 38 min
Bit rate                                  : 32.4 kb/s
Frame rate                                : 0.352 FPS
Count of elements                         : 2084
Stream size                               : 22.9 MiB (0%)
Title                                     : English
Language                                  : English
Default                                   : No
Forced                                    : No

Text #2
ID                                        : 6
Format                                    : PGS
Codec ID                                  : S_HDMV/PGS
Codec ID/Info                             : Picture based subtitle format used on BDs
Duration                                  : 1 h 37 min
Bit rate                                  : 28.1 kb/s
Frame rate                                : 0.324 FPS
Count of elements                         : 1892
Stream size                               : 19.8 MiB (0%)
Title                                     : Spanish
Language                                  : Spanish
Default                                   : No
Forced                                    : No
</pre>